<?xml version="1.0" encoding="UTF-8" standalone="no"?>
<svg
   id="visual"
   viewBox="0 0 960 300"
   width="960"
   height="300"
   version="1.1"
   sodipodi:docname="layered-waves-haikei (2).svg"
   inkscape:version="1.3 (0e150ed6c4, 2023-07-21)"
   xmlns:inkscape="http://www.inkscape.org/namespaces/inkscape"
   xmlns:sodipodi="http://sodipodi.sourceforge.net/DTD/sodipodi-0.dtd"
   xmlns="http://www.w3.org/2000/svg"
   xmlns:svg="http://www.w3.org/2000/svg">
  <defs
     id="defs5" />
  <sodipodi:namedview
     id="namedview5"
     pagecolor="#ffffff"
     bordercolor="#000000"
     borderopacity="0.25"
     inkscape:showpageshadow="2"
     inkscape:pageopacity="0.0"
     inkscape:pagecheckerboard="0"
     inkscape:deskcolor="#d1d1d1"
     inkscape:zoom="0.63229167"
     inkscape:cx="255.4201"
     inkscape:cy="385.89786"
     inkscape:window-width="1366"
     inkscape:window-height="746"
     inkscape:window-x="-8"
     inkscape:window-y="-8"
     inkscape:window-maximized="1"
     inkscape:current-layer="visual" />
  <rect
     x="0"
     y="0"
     width="960"
     height="300"
     fill="#111111"
     id="rect1"
     style="display:inline;stroke:none;fill-rule:nonzero" />
  <path
     d="m 960,274.02679 -22.8,-4.5 c -22.9,-4.5 -68.5,-13.5 -114.2,-11.8 -45.7,1.6 -91.3,14 -137,16.6 -45.7,2.7 -91.3,-4.3 -137.2,-10.3 -45.8,-6 -91.8,-11 -137.6,-12.3 -45.9,-1.4 -91.5,1 -137.2,8.5 -45.7,7.5 -91.3,20.1 -137,21.8 -45.7,1.7 -91.3,-7.7 -114.2,-12.3 l -22.8,-4.7 v -99 h 22.8 c 22.9,0 68.5,0 114.2,0 45.7,0 91.3,0 137,0 45.7,0 91.3,0 137.2,0 45.8,0 91.8,0 137.6,0 45.9,0 91.5,0 137.2,0 45.7,0 91.3,0 137,0 45.7,0 91.3,0 114.2,0 H 960 Z"
     fill="#ff9579"
     id="path1" />
  <path
     d="m 960,245.02679 -22.8,-1.5 c -22.9,-1.5 -68.5,-4.5 -114.2,-3.8 -45.7,0.6 -91.3,5 -137,4.8 -45.7,-0.2 -91.3,-4.8 -137.2,-2.5 -45.8,2.3 -91.8,11.7 -137.6,16.3 -45.9,4.7 -91.5,4.7 -137.2,2.7 -45.7,-2 -91.3,-6 -137,-10 -45.7,-4 -91.3,-8 -114.2,-10 l -22.8,-2 v -73 h 22.8 c 22.9,0 68.5,0 114.2,0 45.7,0 91.3,0 137,0 45.7,0 91.3,0 137.2,0 45.8,0 91.8,0 137.6,0 45.9,0 91.5,0 137.2,0 45.7,0 91.3,0 137,0 45.7,0 91.3,0 114.2,0 H 960 Z"
     fill="#f48467"
     id="path2" />
  <path
     d="m 960,232.02679 -22.8,-1.3 c -22.9,-1.4 -68.5,-4 -114.2,-2 -45.7,2 -91.3,8.6 -137,7.3 -45.7,-1.3 -91.3,-10.7 -137.2,-9.8 -45.8,0.8 -91.8,11.8 -137.6,15.8 -45.9,4 -91.5,1 -137.2,-5.2 -45.7,-6.1 -91.3,-15.5 -137,-16.6 -45.7,-1.2 -91.3,5.8 -114.2,9.3 l -22.8,3.5 v -67 h 22.8 c 22.9,0 68.5,0 114.2,0 45.7,0 91.3,0 137,0 45.7,0 91.3,0 137.2,0 45.8,0 91.8,0 137.6,0 45.9,0 91.5,0 137.2,0 45.7,0 91.3,0 137,0 45.7,0 91.3,0 114.2,0 H 960 Z"
     fill="#e87255"
     id="path3" />
  <path
     d="m 960,216.02679 -22.8,1.2 c -22.9,1.1 -68.5,3.5 -114.2,3 -45.7,-0.5 -91.3,-3.9 -137,-5.5 -45.7,-1.7 -91.3,-1.7 -137.2,0.6 -45.8,2.4 -91.8,7 -137.6,5.9 -45.9,-1.2 -91.5,-8.2 -137.2,-9.5 -45.7,-1.4 -91.3,3 -137,5 -45.7,2 -91.3,1.6 -114.2,1.5 l -22.8,-0.2 v -52 h 22.8 c 22.9,0 68.5,0 114.2,0 45.7,0 91.3,0 137,0 45.7,0 91.3,0 137.2,0 45.8,0 91.8,0 137.6,0 45.9,0 91.5,0 137.2,0 45.7,0 91.3,0 137,0 45.7,0 91.3,0 114.2,0 H 960 Z"
     fill="#dc6044"
     id="path4" />
  <path
     d="m 960,200.02679 -22.8,-2 c -22.9,-2 -68.5,-6 -114.2,-5.8 -45.7,0.1 -91.3,4.5 -137,3.3 -45.7,-1.2 -91.3,-7.8 -137.2,-8 -45.8,-0.2 -91.8,6.2 -137.6,7.7 -45.9,1.5 -91.5,-1.9 -137.2,-4.2 -45.7,-2.3 -91.3,-3.7 -137,-4.8 -45.7,-1.2 -91.3,-2.2 -114.2,-2.7 l -22.8,-0.5 v -17 h 22.8 c 22.9,0 68.5,0 114.2,0 45.7,0 91.3,0 137,0 45.7,0 91.3,0 137.2,0 45.8,0 91.8,0 137.6,0 45.9,0 91.5,0 137.2,0 45.7,0 91.3,0 137,0 45.7,0 91.3,0 114.2,0 H 960 Z"
     fill="#d04e33"
     id="path5" />
  <path
     d="m 0,58.026793 22.8,4.5 c 22.9,4.5 68.5,13.5 114.2,11.8 45.7,-1.6 91.3,-14 137,-16.6 45.7,-2.7 91.3,4.3 137.2,10.3 45.8,6 91.8,11 137.6,12.3 45.9,1.4 91.5,-1 137.2,-8.5 45.7,-7.5 91.3,-20.1 137,-21.8 45.7,-1.7 91.3,7.7 114.2,12.3 l 22.8,4.7 v 98.999997 h -22.8 c -22.9,0 -68.5,0 -114.2,0 -45.7,0 -91.3,0 -137,0 -45.7,0 -91.3,0 -137.2,0 -45.8,0 -91.8,0 -137.6,0 -45.9,0 -91.5,0 -137.2,0 -45.7,0 -91.3,0 -137,0 -45.7,0 -91.3,0 -114.2,0 H 0 Z"
     fill="#ff9579"
     id="path1-7" />
  <path
     d="m 0,87.026793 22.8,1.5 c 22.9,1.5 68.5,4.5 114.2,3.8 45.7,-0.6 91.3,-5 137,-4.8 45.7,0.2 91.3,4.8 137.2,2.5 45.8,-2.3 91.8,-11.7 137.6,-16.3 45.9,-4.7 91.5,-4.7 137.2,-2.7 45.7,2 91.3,6 137,10 45.7,4 91.3,8 114.2,10 l 22.8,2 v 72.999997 h -22.8 c -22.9,0 -68.5,0 -114.2,0 -45.7,0 -91.3,0 -137,0 -45.7,0 -91.3,0 -137.2,0 -45.8,0 -91.8,0 -137.6,0 -45.9,0 -91.5,0 -137.2,0 -45.7,0 -91.3,0 -137,0 -45.7,0 -91.3,0 -114.2,0 H 0 Z"
     fill="#f48467"
     id="path2-6" />
  <path
     d="m 0,100.02679 22.8,1.3 c 22.9,1.4 68.5,4 114.2,2 45.7,-2 91.3,-8.599997 137,-7.299997 45.7,1.3 91.3,10.699997 137.2,9.799997 45.8,-0.8 91.8,-11.799997 137.6,-15.799997 45.9,-4 91.5,-1 137.2,5.2 45.7,6.099997 91.3,15.499997 137,16.599997 45.7,1.2 91.3,-5.8 114.2,-9.3 L 960,99.026793 v 66.999997 h -22.8 c -22.9,0 -68.5,0 -114.2,0 -45.7,0 -91.3,0 -137,0 -45.7,0 -91.3,0 -137.2,0 -45.8,0 -91.8,0 -137.6,0 -45.9,0 -91.5,0 -137.2,0 -45.7,0 -91.3,0 -137,0 -45.7,0 -91.3,0 -114.2,0 H 0 Z"
     fill="#e87255"
     id="path3-4" />
  <path
     d="m 0,116.02679 22.8,-1.2 c 22.9,-1.1 68.5,-3.5 114.2,-3 45.7,0.5 91.3,3.9 137,5.5 45.7,1.7 91.3,1.7 137.2,-0.6 45.8,-2.4 91.8,-7 137.6,-5.9 45.9,1.2 91.5,8.2 137.2,9.5 45.7,1.4 91.3,-3 137,-5 45.7,-2 91.3,-1.6 114.2,-1.5 l 22.8,0.2 v 52 h -22.8 c -22.9,0 -68.5,0 -114.2,0 -45.7,0 -91.3,0 -137,0 -45.7,0 -91.3,0 -137.2,0 -45.8,0 -91.8,0 -137.6,0 -45.9,0 -91.5,0 -137.2,0 -45.7,0 -91.3,0 -137,0 -45.7,0 -91.3,0 -114.2,0 H 0 Z"
     fill="#dc6044"
     id="path4-2" />
  <path
     d="m 0,132.02679 22.8,2 c 22.9,2 68.5,6 114.2,5.8 45.7,-0.1 91.3,-4.5 137,-3.3 45.7,1.2 91.3,7.8 137.2,8 45.8,0.2 91.8,-6.2 137.6,-7.7 45.9,-1.5 91.5,1.9 137.2,4.2 45.7,2.3 91.3,3.7 137,4.8 45.7,1.2 91.3,2.2 114.2,2.7 l 22.8,0.5 v 17 h -22.8 c -22.9,0 -68.5,0 -114.2,0 -45.7,0 -91.3,0 -137,0 -45.7,0 -91.3,0 -137.2,0 -45.8,0 -91.8,0 -137.6,0 -45.9,0 -91.5,0 -137.2,0 -45.7,0 -91.3,0 -137,0 -45.7,0 -91.3,0 -114.2,0 H 0 Z"
     fill="#d04e33"
     id="path5-2"
     style="display:inline" />
  <rect
     style="display:inline;fill:#d04e33;fill-opacity:1;stroke-width:0.992334;stroke-linejoin:round"
     id="rect5"
     width="960.00018"
     height="19.106651"
     x="-8.7738037e-05"
     y="156.47346" />
</svg>
