<?xml version="1.0" encoding="UTF-8" standalone="no"?>
<!-- Created with Inkscape (http://www.inkscape.org/) -->

<svg
   width="1080"
   height="1080"
   viewBox="0 0 285.74999 285.75"
   version="1.1"
   id="svg5"
   sodipodi:docname="CassiaLogoMono fix combined.svg"
   inkscape:version="1.3 (0e150ed6c4, 2023-07-21)"
   inkscape:export-filename="..\New folder (3)\CassiaLogo.png"
   inkscape:export-xdpi="364.0889"
   inkscape:export-ydpi="364.0889"
   xml:space="preserve"
   xmlns:inkscape="http://www.inkscape.org/namespaces/inkscape"
   xmlns:sodipodi="http://sodipodi.sourceforge.net/DTD/sodipodi-0.dtd"
   xmlns="http://www.w3.org/2000/svg"
   xmlns:svg="http://www.w3.org/2000/svg"><sodipodi:namedview
     id="namedview7"
     pagecolor="#ffffff"
     bordercolor="#000000"
     borderopacity="0.25"
     inkscape:showpageshadow="false"
     inkscape:pageopacity="0.0"
     inkscape:pagecheckerboard="true"
     inkscape:deskcolor="#d1d1d1"
     inkscape:document-units="px"
     showgrid="false"
     inkscape:zoom="0.5"
     inkscape:cx="357"
     inkscape:cy="658"
     inkscape:window-width="1366"
     inkscape:window-height="746"
     inkscape:window-x="-8"
     inkscape:window-y="-8"
     inkscape:window-maximized="1"
     inkscape:current-layer="svg5"
     showborder="false"
     borderlayer="false"
     shape-rendering="auto"
     showguides="true" /><defs
     id="defs2"><inkscape:path-effect
       effect="bspline"
       id="path-effect3776"
       is_visible="true"
       lpeversion="1"
       weight="33.333333"
       steps="2"
       helper_size="0"
       apply_no_weight="true"
       apply_with_weight="true"
       only_selected="false" /><inkscape:path-effect
       effect="bspline"
       id="path-effect3772"
       is_visible="true"
       lpeversion="1"
       weight="33.333333"
       steps="2"
       helper_size="0"
       apply_no_weight="true"
       apply_with_weight="true"
       only_selected="false" /><inkscape:path-effect
       effect="bspline"
       id="path-effect3768"
       is_visible="true"
       lpeversion="1"
       weight="33.333333"
       steps="2"
       helper_size="0"
       apply_no_weight="true"
       apply_with_weight="true"
       only_selected="false" /><inkscape:path-effect
       effect="bspline"
       id="path-effect3764"
       is_visible="true"
       lpeversion="1"
       weight="33.333333"
       steps="2"
       helper_size="0"
       apply_no_weight="true"
       apply_with_weight="true"
       only_selected="false" /><inkscape:path-effect
       effect="bspline"
       id="path-effect3760"
       is_visible="true"
       lpeversion="1"
       weight="33.333333"
       steps="2"
       helper_size="0"
       apply_no_weight="true"
       apply_with_weight="true"
       only_selected="false" /><inkscape:path-effect
       effect="bspline"
       id="path-effect2760"
       is_visible="true"
       lpeversion="1"
       weight="33.333333"
       steps="2"
       helper_size="0"
       apply_no_weight="true"
       apply_with_weight="true"
       only_selected="false" /><inkscape:path-effect
       effect="bspline"
       id="path-effect1041"
       is_visible="true"
       lpeversion="1"
       weight="33.333333"
       steps="2"
       helper_size="0"
       apply_no_weight="true"
       apply_with_weight="true"
       only_selected="false" /><inkscape:path-effect
       effect="bspline"
       id="path-effect4712"
       is_visible="true"
       lpeversion="1"
       weight="33.333333"
       steps="2"
       helper_size="0"
       apply_no_weight="true"
       apply_with_weight="true"
       only_selected="false" /><inkscape:path-effect
       effect="powerclip"
       id="path-effect2740"
       is_visible="true"
       lpeversion="1"
       inverse="true"
       flatten="false"
       hide_clip="false"
       message="Use fill-rule evenodd on &lt;b&gt;fill and stroke&lt;/b&gt; dialog if no flatten result after convert clip to paths." /><linearGradient
       id="linearGradient6932"
       inkscape:swatch="solid"><stop
         style="stop-color:#000000;stop-opacity:1;"
         offset="0"
         id="stop6930" /></linearGradient><linearGradient
       id="linearGradient6847"
       inkscape:swatch="solid"><stop
         style="stop-color:#ffffff;stop-opacity:1;"
         offset="0"
         id="stop6845" /></linearGradient><clipPath
       clipPathUnits="userSpaceOnUse"
       id="clipath_lpe_path-effect2740"><path
         style="display:block;fill:#1a1a1a;stroke:none;stroke-width:25.829;stroke-linecap:round;stroke-linejoin:round;stroke-dasharray:none;stroke-opacity:1;paint-order:normal"
         d="m 110.84968,88.206913 c 24.65797,-22.398487 39.67533,18.877037 71.29045,4.82587 36.51673,-16.229658 -48.58472,-77.536545 -70.69198,-20.739814"
         id="path2742"
         sodipodi:nodetypes="csc" /></clipPath><inkscape:path-effect
       effect="bspline"
       id="path-effect1214-0"
       is_visible="true"
       lpeversion="1"
       weight="33.333333"
       steps="2"
       helper_size="0"
       apply_no_weight="true"
       apply_with_weight="true"
       only_selected="false" /><inkscape:path-effect
       effect="bspline"
       id="path-effect1497-5"
       is_visible="true"
       lpeversion="1"
       weight="33.333333"
       steps="2"
       helper_size="0"
       apply_no_weight="true"
       apply_with_weight="true"
       only_selected="false" /><inkscape:path-effect
       effect="bspline"
       id="path-effect644-1"
       is_visible="true"
       lpeversion="1"
       weight="33.333333"
       steps="2"
       helper_size="0"
       apply_no_weight="true"
       apply_with_weight="true"
       only_selected="false" /><mask
       maskUnits="userSpaceOnUse"
       id="mask971"><path
         style="display:inline;opacity:1;fill:#ffffff;fill-opacity:1;stroke-width:21.0689;stroke-linecap:round;stroke-linejoin:round"
         d="m 112.65928,87.476311 c 0.60713,0.224862 1.82113,0.67449 3.03515,1.061161 1.21401,0.386671 2.42799,0.710401 3.83085,1.034129 1.40285,0.323728 2.99451,0.647454 4.80312,0.887469 1.80861,0.240015 3.83405,0.396337 5.94874,0.306572 2.11469,-0.08977 4.31843,-0.425564 6.57,-1.025322 2.25157,-0.599758 4.55081,-1.463407 6.84256,-2.156977 2.29175,-0.693569 4.57577,-1.217015 6.78352,-1.521345 2.20775,-0.304331 4.33892,-0.389535 6.65908,-0.143341 2.32016,0.246193 4.829,0.823694 7.3245,1.47427 2.4955,0.650575 4.9774,1.374142 6.79392,1.893305 1.81652,0.519164 2.96755,0.833898 4.27906,1.177669 1.3115,0.343771 2.78335,0.716552 4.47164,0.738823 1.68829,0.02227 3.59273,-0.30585 5.4974,-0.634009 0,0 0,0 0,0 0,0 6.8123,19.883645 6.8123,19.883645 0,0 -2.63425,7.75881 -2.63425,7.75881 0,0 -22.87478,16.87412 -22.87478,16.87412 0,0 -14.85231,-2.40341 -14.85231,-2.40341 0,0 -33.581,-7.5379 -33.581,-7.5379 0,0 -6.74548,-8.91588 -6.74548,-8.91588 0,0 -0.89397,-25.429467 -0.89397,-25.429467 0,0 -0.0261,-3.466249 -0.0261,-3.466249 0,0 0.58002,-0.431647 0.58002,-0.431647 0.25629,0.116904 0.51285,0.233928 0.64086,0.29232 0.12801,0.05839 0.12804,0.05839 0.73517,0.283254 z"
         id="path973"
         sodipodi:nodetypes="scccccccccccccccccccccccss"
         inkscape:original-d="m 112.05215,87.251448 c 1.21422,0.449846 2.42822,0.899473 3.64201,1.348886 1.21424,0.323956 2.42822,0.647688 3.642,0.971204 1.59194,0.32396 3.1836,0.647681 4.77507,0.971198 2.02577,0.156543 4.05121,0.312863 6.07655,0.468985 2.20409,-0.335608 4.40783,-0.6714 6.61149,-1.007434 2.29954,-0.863464 4.59878,-1.72711 6.89785,-2.590996 2.28439,-0.523268 4.56841,-1.046715 6.85236,-1.570406 2.1315,-0.085 4.26267,-0.170195 6.39375,-0.255624 2.50919,0.577748 5.01803,1.15525 7.5268,1.732566 2.48223,0.723819 4.96413,1.447383 7.44588,2.170753 1.15129,0.314961 2.30232,0.629701 3.45316,0.944221 1.47217,0.373026 2.94402,0.745801 4.41575,1.118392 1.90493,-0.327955 5.714,-0.984478 5.714,-0.984478 v 0 l 6.8123,19.883645 -2.63425,7.75881 -22.87478,16.87412 -14.85231,-2.40341 -33.581,-7.5379 -6.74548,-8.91588 -0.89397,-25.429467 -0.0261,-3.466249 0.58002,-0.431647 c 0,0 0.5128,0.234027 0.76887,0.350711 z"
         inkscape:path-effect="#path-effect4712" /></mask></defs><g
     inkscape:groupmode="layer"
     id="g19142"
     inkscape:label="Cassia Logo"
     transform="matrix(1.2259305,0,0,1.2259305,-38.641922,-2.0436794)"
     style="display:inline"><path
       id="path915"
       clip-path="none"
       mask="url(#mask971)"
       style="display:inline;opacity:1;fill:#ffffff;stroke-width:22.9733;stroke-linecap:round;stroke-linejoin:round"
       inkscape:label="wave circle"
       d="m 184.89309,87.345287 c 0.27492,16.364773 -11.74318,31.858413 -27.66219,35.661893 -22.13383,6.4457 -46.86182,-12.41078 -45.97504,-35.661893 -0.91501,-23.291226 23.88369,-42.047215 45.97504,-35.661887 15.95385,3.840892 27.90911,19.251258 27.66219,35.661887 z" /><path
       id="path19138"
       style="display:inline;opacity:0.995575;fill:#ffffff;stroke-width:25.829;stroke-linecap:round;stroke-linejoin:round"
       inkscape:label="stem"
       d="M 142.87289 56.808792 C 120.43782 56.808796 100.1597 70.356795 91.574171 91.084096 C 82.98864 111.8114 87.747343 135.73006 103.61133 151.59405 C 109.70111 157.68383 116.97834 162.1348 124.80577 164.82498 L 124.79397 164.82498 C 124.79397 164.82498 124.80693 164.82582 124.80788 164.82582 C 125.76741 165.15556 126.73519 165.45855 127.7101 165.73506 C 127.71027 165.73511 127.71035 165.73543 127.71052 165.73548 C 131.42497 167.73736 137.36773 174.14228 137.36773 194.63756 C 137.36773 209.34605 134.30701 216.79545 131.20583 220.57082 A 30.921188 4.6967111 0 0 0 112.72182 224.86999 A 30.921188 4.6967111 0 0 0 143.64302 229.56666 A 30.921188 4.6967111 0 0 0 174.56423 224.86999 A 30.921188 4.6967111 0 0 0 154.48389 220.47387 C 151.41864 216.66829 148.41852 209.22073 148.41852 194.63756 C 148.41852 174.18456 154.3192 167.76489 158.02472 165.74897 C 160.0798 165.16609 162.11536 164.46192 164.12087 163.63121 C 184.84816 155.04568 198.39617 134.76925 198.39617 112.33418 A 7.7712498 7.7712498 0 0 0 190.62487 104.56288 A 7.7712498 7.7712498 0 0 0 182.85316 112.33418 C 182.85316 128.52755 173.13256 143.07492 158.17184 149.27185 C 143.21111 155.46879 126.05185 152.05399 114.60142 140.60355 C 103.15098 129.15311 99.736596 111.99427 105.93353 97.033545 C 112.13046 82.072826 126.67953 72.351806 142.87289 72.351803 A 7.7712498 7.7712498 0 0 0 150.64419 64.580087 A 7.7712498 7.7712498 0 0 0 142.87289 56.808792 z "
       transform="translate(5.1896088,-24.976767)" /></g></svg>
